<svg xmlns="http://www.w3.org/2000/svg" xmlns:xlink="http://www.w3.org/1999/xlink" width="500" zoomAndPan="magnify" viewBox="0 0 375 374.999991" height="500" preserveAspectRatio="xMidYMid meet" version="1.0"><defs><g/><clipPath id="e26077de55"><path d="M 57.144531 61.296875 L 317.855469 61.296875 L 317.855469 322.007812 L 57.144531 322.007812 Z M 57.144531 61.296875 " clip-rule="nonzero"/></clipPath><clipPath id="aebf50307d"><path d="M 187.5 61.296875 C 115.507812 61.296875 57.144531 119.65625 57.144531 191.652344 C 57.144531 263.644531 115.507812 322.007812 187.5 322.007812 C 259.492188 322.007812 317.855469 263.644531 317.855469 191.652344 C 317.855469 119.65625 259.492188 61.296875 187.5 61.296875 Z M 187.5 61.296875 " clip-rule="nonzero"/></clipPath><clipPath id="8b79a9b697"><path d="M 47 238 L 337.769531 238 L 337.769531 271 L 47 271 Z M 47 238 " clip-rule="nonzero"/></clipPath><clipPath id="7d1462e7ee"><path d="M 12.070312 16.375 L 362.015625 16.375 L 362.015625 366.320312 L 12.070312 366.320312 Z M 12.070312 16.375 " clip-rule="nonzero"/></clipPath><clipPath id="a6a048f7cf"><path d="M 187.042969 16.375 C 90.410156 16.375 12.070312 94.714844 12.070312 191.347656 C 12.070312 287.984375 90.410156 366.320312 187.042969 366.320312 C 283.679688 366.320312 362.015625 287.984375 362.015625 191.347656 C 362.015625 94.714844 283.679688 16.375 187.042969 16.375 Z M 187.042969 16.375 " clip-rule="nonzero"/></clipPath></defs><g clip-path="url(#e26077de55)"><g clip-path="url(#aebf50307d)"><path fill="#ffffff" d="M 57.144531 61.296875 L 317.855469 61.296875 L 317.855469 322.007812 L 57.144531 322.007812 Z M 57.144531 61.296875 " fill-opacity="1" fill-rule="nonzero"/></g></g><path fill="#9adbc7" d="M 125.40625 203.507812 C 124.59375 204.175781 123.800781 204.875 123.042969 205.613281 C 117.554688 210.988281 115.4375 218.214844 116.980469 224.511719 C 117.277344 225.714844 117.699219 226.871094 118.246094 227.984375 C 118.789062 229.097656 119.445312 230.140625 120.207031 231.113281 C 120.972656 232.089844 121.832031 232.972656 122.785156 233.765625 C 123.738281 234.558594 124.761719 235.242188 125.859375 235.816406 C 129.933594 238.035156 134.277344 239.40625 138.886719 239.929688 C 150.4375 241.203125 163.015625 236.257812 171.105469 228.015625 C 176.242188 222.808594 181.308594 215.6875 187.339844 210.238281 C 190.648438 207.257812 194.257812 204.78125 198.480469 203.917969 C 196.917969 206.878906 195.335938 209.828125 194.769531 213.167969 C 192.992188 223.640625 200.382812 234.304688 210.082031 237.71875 C 213.589844 238.914062 217.179688 239.257812 220.851562 238.746094 C 231.785156 237.328125 237.839844 231.664062 242.660156 224.542969 C 246.410156 218.996094 249.203125 212.347656 254.148438 207.074219 C 256.417969 204.667969 259.726562 203.128906 263.316406 202.078125 C 267.078125 201.027344 270.914062 200.453125 274.824219 200.363281 C 272.015625 203.535156 269.703125 207.039062 267.886719 210.867188 C 265.832031 215.871094 265.6875 220.9375 268.730469 225.429688 C 272.675781 231.265625 278.511719 233.824219 284.988281 234.675781 C 290.0625 235.363281 295.542969 234.945312 300.246094 234.945312 C 306.648438 234.992188 313.027344 235.386719 319.382812 236.125 C 319.769531 236.175781 320.15625 236.1875 320.546875 236.160156 C 320.9375 236.132812 321.320312 236.066406 321.695312 235.964844 C 322.074219 235.859375 322.433594 235.722656 322.785156 235.546875 C 323.132812 235.371094 323.460938 235.160156 323.765625 234.921875 C 324.074219 234.679688 324.355469 234.410156 324.605469 234.113281 C 324.859375 233.816406 325.082031 233.496094 325.269531 233.15625 C 325.460938 232.8125 325.613281 232.457031 325.734375 232.085938 C 325.851562 231.710938 325.929688 231.332031 325.972656 230.945312 C 326.015625 230.554688 326.019531 230.167969 325.984375 229.777344 C 325.949219 229.390625 325.875 229.007812 325.765625 228.632812 C 325.652344 228.261719 325.507812 227.902344 325.324219 227.554688 C 325.140625 227.210938 324.925781 226.886719 324.675781 226.585938 C 324.429688 226.285156 324.15625 226.007812 323.851562 225.761719 C 323.550781 225.515625 323.226562 225.300781 322.882812 225.117188 C 322.535156 224.9375 322.175781 224.789062 321.800781 224.679688 C 321.425781 224.570312 321.046875 224.496094 320.65625 224.460938 C 313.875 223.675781 307.066406 223.257812 300.238281 223.207031 C 296.023438 223.207031 291.121094 223.660156 286.582031 223.042969 C 283.425781 222.613281 280.414062 221.6875 278.484375 218.839844 C 278.109375 218.1875 278.042969 217.5 278.277344 216.785156 C 278.5625 215.695312 278.996094 214.667969 279.582031 213.703125 C 281.554688 210.230469 284.578125 207.003906 286.488281 204.722656 C 287.804688 203.230469 288.917969 201.605469 289.828125 199.839844 C 290.597656 198.195312 290.808594 196.484375 290.453125 194.703125 C 289.910156 192.277344 288.398438 189.472656 283.351562 188.914062 C 271.585938 187.621094 254.046875 189.945312 245.566406 199.015625 C 241.136719 203.734375 238.136719 209.367188 234.992188 214.628906 C 231.476562 220.484375 227.851562 225.929688 219.34375 227.070312 C 217.523438 227.355469 215.738281 227.210938 213.988281 226.640625 C 209.351562 225.015625 205.519531 220.125 206.375 215.121094 C 207.050781 211.070312 209.855469 207.925781 211.429688 204.1875 C 212.1875 202.402344 212.53125 200.542969 212.457031 198.605469 C 212.445312 198.210938 212.394531 197.820312 212.3125 197.429688 C 212.230469 197.042969 212.113281 196.667969 211.960938 196.300781 C 211.808594 195.933594 211.625 195.585938 211.414062 195.25 C 211.199219 194.917969 210.957031 194.605469 210.683594 194.316406 C 210.414062 194.027344 210.121094 193.765625 209.800781 193.527344 C 209.484375 193.292969 209.148438 193.085938 208.792969 192.910156 C 208.4375 192.734375 208.070312 192.589844 207.691406 192.480469 C 207.308594 192.371094 206.921875 192.296875 206.527344 192.253906 C 195.625 190.363281 186.941406 194.703125 179.460938 201.464844 C 173.292969 207.074219 167.960938 214.378906 162.6875 219.746094 C 157.035156 225.519531 148.300781 229.097656 140.183594 228.203125 C 137.15625 227.871094 134.300781 226.980469 131.621094 225.53125 C 126.96875 222.921875 127.707031 217.453125 131.285156 213.960938 C 134.460938 210.875 138.25 208.585938 141.652344 205.738281 C 142.835938 204.832031 143.898438 203.804688 144.847656 202.65625 C 145.710938 201.417969 146.105469 200.050781 146.039062 198.542969 C 145.976562 197.214844 145.527344 196.027344 144.695312 194.988281 C 143.777344 193.835938 142.605469 193.09375 141.167969 192.757812 C 133.0625 190.703125 122.25 191.042969 113.054688 194.21875 C 106.476562 196.5 100.722656 200.21875 97.082031 205.222656 C 94.605469 208.605469 92.695312 213.269531 90.433594 217.609375 C 88.933594 220.484375 87.425781 223.332031 84.730469 224.617188 C 81.648438 226.074219 78.660156 225.429688 75.667969 224.535156 C 71.09375 223.167969 66.5625 221.070312 62.125 220.238281 C 61.746094 220.167969 61.363281 220.132812 60.976562 220.136719 C 60.589844 220.140625 60.210938 220.183594 59.832031 220.261719 C 59.453125 220.339844 59.089844 220.457031 58.734375 220.605469 C 58.378906 220.757812 58.042969 220.941406 57.722656 221.160156 C 57.40625 221.378906 57.113281 221.625 56.839844 221.898438 C 56.570312 222.175781 56.332031 222.472656 56.121094 222.796875 C 55.910156 223.121094 55.730469 223.460938 55.589844 223.816406 C 55.445312 224.175781 55.335938 224.542969 55.265625 224.921875 C 55.195312 225.300781 55.160156 225.683594 55.164062 226.070312 C 55.167969 226.457031 55.210938 226.835938 55.289062 227.214844 C 55.371094 227.59375 55.484375 227.957031 55.636719 228.3125 C 55.789062 228.667969 55.972656 229.003906 56.191406 229.324219 C 56.40625 229.640625 56.65625 229.933594 56.929688 230.203125 C 57.207031 230.472656 57.503906 230.714844 57.828125 230.925781 C 58.152344 231.136719 58.492188 231.3125 58.851562 231.457031 C 59.207031 231.601562 59.578125 231.707031 59.957031 231.777344 C 64.003906 232.527344 68.105469 234.523438 72.285156 235.777344 C 78.0625 237.503906 83.910156 238.015625 89.757812 235.199219 C 93.804688 233.257812 96.878906 229.824219 99.34375 225.683594 C 102.007812 221.214844 103.847656 215.808594 106.539062 212.152344 C 108.882812 208.953125 112.703125 206.765625 116.816406 205.308594 C 119.578125 204.367188 122.410156 203.738281 125.3125 203.425781 Z M 125.40625 203.507812 " fill-opacity="1" fill-rule="evenodd"/><g clip-path="url(#8b79a9b697)"><path fill="#9adbc7" d="M 106.855469 254.953125 C 107.511719 255.570312 108.128906 256.222656 108.707031 256.914062 C 110.761719 259.535156 112.722656 262.390625 114.492188 263.839844 C 122.136719 270.128906 131.652344 271.035156 141.128906 269.59375 C 152.257812 267.972656 162.800781 263.101562 172.636719 257.859375 C 175.347656 256.410156 178.328125 254.398438 181.421875 252.722656 C 183.640625 251.53125 185.914062 250.449219 188.214844 250.429688 C 189.480469 250.578125 190.59375 251.070312 191.554688 251.910156 C 193.609375 253.328125 195.5625 255.066406 197.390625 256.320312 C 200.03125 258.199219 202.871094 259.703125 205.910156 260.835938 C 208.945312 261.96875 212.078125 262.6875 215.304688 263 C 223.988281 263.707031 231.40625 260.222656 238.519531 255.710938 C 240.4375 254.5 242.496094 253.050781 244.683594 251.921875 C 246.09375 251.070312 247.621094 250.59375 249.265625 250.492188 C 251.117188 250.621094 252.832031 251.175781 254.40625 252.15625 C 256.078125 253.039062 257.722656 254.007812 259.417969 254.847656 C 265.339844 257.855469 271.574219 259.890625 278.121094 260.964844 C 296.066406 263.695312 314.265625 258.476562 331.949219 256.0625 C 332.332031 256.007812 332.707031 255.917969 333.070312 255.792969 C 333.433594 255.667969 333.78125 255.507812 334.117188 255.3125 C 334.449219 255.117188 334.757812 254.890625 335.046875 254.636719 C 335.335938 254.378906 335.597656 254.097656 335.828125 253.792969 C 336.0625 253.484375 336.261719 253.15625 336.429688 252.808594 C 336.597656 252.464844 336.730469 252.105469 336.828125 251.730469 C 336.925781 251.359375 336.988281 250.980469 337.011719 250.59375 C 337.03125 250.210938 337.019531 249.824219 336.964844 249.445312 C 336.914062 249.0625 336.824219 248.6875 336.695312 248.324219 C 336.570312 247.960938 336.410156 247.613281 336.214844 247.277344 C 336.019531 246.945312 335.796875 246.636719 335.539062 246.347656 C 335.285156 246.058594 335.003906 245.796875 334.695312 245.566406 C 334.386719 245.332031 334.0625 245.132812 333.714844 244.964844 C 333.367188 244.796875 333.007812 244.664062 332.632812 244.566406 C 332.261719 244.46875 331.882812 244.40625 331.496094 244.382812 C 331.113281 244.363281 330.730469 244.375 330.347656 244.429688 C 313.773438 246.710938 296.734375 251.929688 279.902344 249.371094 C 274.550781 248.476562 269.460938 246.800781 264.628906 244.335938 C 259.707031 241.910156 255 238.765625 249.265625 238.765625 C 243.101562 238.765625 237.203125 242.660156 232.21875 245.816406 C 227.234375 248.972656 222.292969 251.808594 216.269531 251.3125 C 214.070312 251.089844 211.9375 250.585938 209.871094 249.800781 C 207.804688 249.011719 205.875 247.972656 204.082031 246.679688 C 201.78125 245.085938 199.292969 242.804688 196.609375 241.222656 C 194.019531 239.597656 191.191406 238.757812 188.132812 238.703125 C 184.5625 238.835938 181.1875 239.703125 178 241.316406 C 174.136719 243.132812 170.425781 245.734375 167.085938 247.480469 C 158.433594 252.09375 149.214844 256.523438 139.421875 257.960938 C 133.257812 258.855469 126.957031 258.855469 121.953125 254.757812 C 120.308594 253.398438 118.632812 250.335938 116.648438 248.085938 C 114.050781 245.136719 111 243.257812 107.964844 243.011719 C 105.585938 242.878906 103.355469 243.382812 101.265625 244.53125 C 99.347656 245.632812 97.53125 246.875 95.808594 248.261719 C 91.875 251.222656 88.019531 254.859375 83.148438 256.070312 C 76.46875 257.707031 68.679688 255.578125 62.132812 254.203125 C 59.308594 253.605469 56.050781 252.144531 53.171875 252.144531 C 52.777344 252.125 52.386719 252.144531 51.996094 252.207031 C 51.605469 252.265625 51.222656 252.363281 50.851562 252.5 C 50.480469 252.636719 50.125 252.808594 49.789062 253.015625 C 49.453125 253.222656 49.140625 253.464844 48.855469 253.734375 C 48.566406 254.007812 48.308594 254.304688 48.082031 254.625 C 47.851562 254.949219 47.660156 255.292969 47.5 255.652344 C 47.34375 256.015625 47.222656 256.390625 47.140625 256.777344 C 47.058594 257.164062 47.015625 257.554688 47.011719 257.949219 C 47.007812 258.34375 47.042969 258.738281 47.117188 259.125 C 47.191406 259.511719 47.304688 259.890625 47.457031 260.253906 C 47.609375 260.621094 47.796875 260.964844 48.015625 261.292969 C 48.238281 261.621094 48.492188 261.921875 48.773438 262.199219 C 49.054688 262.476562 49.363281 262.722656 49.695312 262.9375 C 50.027344 263.152344 50.378906 263.328125 50.746094 263.472656 C 51.113281 263.617188 51.492188 263.722656 51.882812 263.789062 C 52.273438 263.855469 52.664062 263.882812 53.058594 263.871094 C 55.21875 263.871094 57.582031 265.269531 59.6875 265.722656 C 67.910156 267.449219 77.621094 269.554688 85.953125 267.507812 C 92.398438 265.886719 97.691406 261.570312 102.878906 257.683594 C 103.660156 257.101562 104.605469 256.339844 105.625 255.628906 C 106.019531 255.371094 106.429688 255.140625 106.855469 254.929688 Z M 106.855469 254.953125 " fill-opacity="1" fill-rule="evenodd"/></g><path fill="#9adbc7" d="M 321.5 277.097656 C 316.648438 278.773438 310.882812 278.699219 305.828125 279.152344 C 295.871094 279.996094 285.59375 281.105469 275.71875 278.96875 C 271.792969 278.113281 267.683594 276.203125 263.539062 274.632812 C 258.269531 272.574219 252.933594 271.136719 247.777344 271.546875 C 239.175781 272.183594 231.335938 276.019531 223.566406 280.027344 C 217.195312 283.292969 210.875 286.726562 203.792969 287.28125 C 201.988281 287.410156 200.214844 287.242188 198.464844 286.78125 C 196.71875 286.316406 195.09375 285.582031 193.589844 284.578125 C 191.328125 283.078125 189.230469 281.15625 186.980469 279.523438 C 183.894531 277.117188 180.417969 275.613281 176.550781 275.023438 C 168.636719 273.992188 160.953125 276.636719 153.335938 279.871094 C 147.316406 282.429688 141.355469 285.421875 135.148438 285.820312 C 132.675781 285.941406 130.234375 285.730469 127.820312 285.191406 C 125.40625 284.65625 123.101562 283.8125 120.914062 282.65625 C 115.644531 280.027344 110.382812 276.492188 104.296875 276.191406 C 96.558594 275.832031 88.09375 279.78125 80.664062 281.453125 C 76.722656 282.363281 72.738281 282.664062 68.707031 282.355469 C 64.675781 282.046875 60.78125 281.144531 57.027344 279.644531 C 56.660156 279.488281 56.285156 279.367188 55.894531 279.285156 C 55.503906 279.203125 55.109375 279.160156 54.710938 279.160156 C 54.316406 279.15625 53.921875 279.195312 53.53125 279.273438 C 53.140625 279.351562 52.761719 279.46875 52.394531 279.625 C 52.027344 279.78125 51.679688 279.96875 51.351562 280.195312 C 51.027344 280.421875 50.722656 280.679688 50.449219 280.964844 C 50.171875 281.253906 49.929688 281.566406 49.71875 281.902344 C 49.503906 282.242188 49.328125 282.59375 49.191406 282.96875 C 49.050781 283.339844 48.949219 283.722656 48.886719 284.117188 C 48.828125 284.511719 48.804688 284.90625 48.824219 285.304688 C 48.84375 285.703125 48.902344 286.09375 49 286.480469 C 49.097656 286.863281 49.234375 287.238281 49.410156 287.59375 C 49.582031 287.953125 49.792969 288.289062 50.035156 288.605469 C 50.277344 288.921875 50.550781 289.207031 50.851562 289.46875 C 51.152344 289.730469 51.476562 289.957031 51.824219 290.148438 C 52.171875 290.34375 52.535156 290.5 52.914062 290.621094 C 57.738281 292.535156 62.738281 293.683594 67.910156 294.074219 C 73.082031 294.464844 78.199219 294.074219 83.25 292.902344 C 89.757812 291.433594 97.042969 287.601562 103.804688 287.910156 C 108.234375 288.113281 111.851562 291.226562 115.695312 293.140625 C 118.808594 294.753906 122.082031 295.925781 125.511719 296.660156 C 128.941406 297.394531 132.40625 297.664062 135.90625 297.464844 C 143.398438 296.980469 150.683594 293.683594 157.941406 290.609375 C 163.59375 288.207031 169.246094 285.851562 175.070312 286.601562 C 176.941406 286.949219 178.609375 287.730469 180.066406 288.957031 C 182.449219 290.683594 184.691406 292.695312 187.085938 294.289062 C 189.683594 296.019531 192.496094 297.277344 195.515625 298.070312 C 198.535156 298.863281 201.605469 299.144531 204.71875 298.914062 C 213.351562 298.246094 221.160156 294.382812 228.960938 290.386719 C 235.3125 287.117188 241.609375 283.707031 248.628906 283.191406 C 252.164062 282.933594 255.75 284.21875 259.347656 285.566406 C 264.054688 287.351562 268.742188 289.429688 273.210938 290.40625 C 284.238281 292.808594 295.707031 291.792969 306.855469 290.828125 C 312.824219 290.300781 319.609375 290.160156 325.351562 288.175781 C 325.71875 288.050781 326.070312 287.890625 326.40625 287.699219 C 326.738281 287.503906 327.050781 287.28125 327.34375 287.023438 C 327.632812 286.769531 327.894531 286.488281 328.128906 286.179688 C 328.363281 285.871094 328.566406 285.542969 328.734375 285.195312 C 328.90625 284.847656 329.039062 284.488281 329.140625 284.113281 C 329.238281 283.742188 329.296875 283.359375 329.320312 282.976562 C 329.34375 282.589844 329.332031 282.203125 329.277344 281.820312 C 329.226562 281.4375 329.136719 281.0625 329.007812 280.699219 C 328.882812 280.332031 328.722656 279.984375 328.523438 279.648438 C 328.328125 279.316406 328.101562 279.003906 327.84375 278.714844 C 327.589844 278.425781 327.304688 278.167969 326.996094 277.933594 C 326.6875 277.699219 326.359375 277.5 326.011719 277.332031 C 325.660156 277.164062 325.300781 277.03125 324.925781 276.9375 C 324.550781 276.839844 324.171875 276.78125 323.785156 276.761719 C 323.398438 276.738281 323.015625 276.757812 322.632812 276.8125 C 322.25 276.867188 321.875 276.957031 321.507812 277.085938 Z M 321.5 277.097656 " fill-opacity="1" fill-rule="evenodd"/><g clip-path="url(#7d1462e7ee)"><g clip-path="url(#a6a048f7cf)"><path stroke-linecap="butt" transform="matrix(0.75, 0, 0, 0.75, 12.070389, 16.375544)" fill="none" stroke-linejoin="miter" d="M 233.296773 -0.000725393 C 104.453023 -0.000725393 -0.000102623 104.4524 -0.000102623 233.29615 C -0.000102623 362.145109 104.453023 466.593025 233.296773 466.593025 C 362.145731 466.593025 466.593648 362.145109 466.593648 233.29615 C 466.593648 104.4524 362.145731 -0.000725393 233.296773 -0.000725393 Z M 233.296773 -0.000725393 " stroke="#e3c153" stroke-width="122" stroke-opacity="1" stroke-miterlimit="4"/></g></g><g fill="#ffffff" fill-opacity="1"><g transform="translate(54.3774, 125.653506)"><g><path d="M -7.65625 -4.359375 L -9.59375 -5.421875 L -5.84375 -12.1875 L -3.90625 -11.125 L -5.171875 -8.84375 L 2.53125 -4.578125 L 1.3125 -2.375 L -6.390625 -6.640625 Z M -7.65625 -4.359375 "/></g></g></g><g fill="#ffffff" fill-opacity="1"><g transform="translate(61.154938, 113.879679)"><g><path d="M -8.625 -6.890625 L -6.40625 -10.140625 C -5.800781 -11.015625 -5.070312 -11.5625 -4.21875 -11.78125 C -3.375 -12.007812 -2.519531 -11.828125 -1.65625 -11.234375 C -1 -10.785156 -0.5625 -10.238281 -0.34375 -9.59375 C -0.125 -8.945312 -0.113281 -8.28125 -0.3125 -7.59375 L 5.578125 -8.125 L 3.78125 -5.5 L -1.703125 -5.1875 L 1.875 -2.734375 L 0.453125 -0.65625 Z M -3.171875 -6.203125 L -3 -6.4375 C -2.875 -6.632812 -2.769531 -6.800781 -2.6875 -6.9375 C -2.601562 -7.070312 -2.523438 -7.238281 -2.453125 -7.4375 C -2.378906 -7.632812 -2.347656 -7.8125 -2.359375 -7.96875 C -2.378906 -8.125 -2.4375 -8.289062 -2.53125 -8.46875 C -2.632812 -8.65625 -2.796875 -8.820312 -3.015625 -8.96875 C -3.234375 -9.125 -3.445312 -9.21875 -3.65625 -9.25 C -3.863281 -9.28125 -4.039062 -9.269531 -4.1875 -9.21875 C -4.332031 -9.164062 -4.484375 -9.070312 -4.640625 -8.9375 C -4.804688 -8.800781 -4.9375 -8.671875 -5.03125 -8.546875 C -5.132812 -8.421875 -5.25 -8.257812 -5.375 -8.0625 L -5.546875 -7.828125 Z M -3.171875 -6.203125 "/></g></g></g><g fill="#ffffff" fill-opacity="1"><g transform="translate(69.958566, 101.534808)"><g><path d="M -4.25 -12 L 7.03125 -8.234375 L 5.28125 -6.1875 L 3.078125 -7 L 0.359375 -3.8125 L 1.515625 -1.765625 L -0.25 0.28125 L -5.75 -10.234375 Z M 0.84375 -7.78125 L -2.390625 -8.9375 L -2.40625 -8.90625 L -0.78125 -5.890625 Z M 0.84375 -7.78125 "/></g></g></g><g fill="#ffffff" fill-opacity="1"><g transform="translate(80.594713, 89.500633)"><g><path d="M -2.28125 -7.234375 L 2.40625 -2.265625 L 0.578125 -0.546875 L -6.96875 -8.5625 L -5.140625 -10.28125 L 2.734375 -8.296875 L 2.765625 -8.328125 L -1.921875 -13.3125 L -0.109375 -15.015625 L 7.4375 -7 L 5.625 -5.296875 L -2.25 -7.265625 Z M -2.28125 -7.234375 "/></g></g></g><g fill="#ffffff" fill-opacity="1"><g transform="translate(92.932023, 78.352618)"><g><path d="M -2.9375 -11.859375 C -2.457031 -12.210938 -1.941406 -12.492188 -1.390625 -12.703125 C -0.835938 -12.910156 -0.394531 -13.035156 -0.0625 -13.078125 L 0.40625 -13.109375 L 0.828125 -10.90625 C 0.722656 -10.894531 0.585938 -10.878906 0.421875 -10.859375 C 0.265625 -10.847656 -0.0078125 -10.773438 -0.40625 -10.640625 C -0.800781 -10.515625 -1.132812 -10.347656 -1.40625 -10.140625 C -1.738281 -9.890625 -1.941406 -9.625 -2.015625 -9.34375 C -2.097656 -9.0625 -2.046875 -8.800781 -1.859375 -8.5625 C -1.773438 -8.445312 -1.644531 -8.367188 -1.46875 -8.328125 C -1.300781 -8.296875 -1.070312 -8.300781 -0.78125 -8.34375 C -0.488281 -8.382812 -0.238281 -8.425781 -0.03125 -8.46875 C 0.175781 -8.519531 0.492188 -8.597656 0.921875 -8.703125 C 1.671875 -8.890625 2.398438 -8.925781 3.109375 -8.8125 C 3.828125 -8.707031 4.390625 -8.390625 4.796875 -7.859375 C 5.179688 -7.359375 5.425781 -6.851562 5.53125 -6.34375 C 5.632812 -5.832031 5.609375 -5.351562 5.453125 -4.90625 C 5.304688 -4.457031 5.082031 -4.035156 4.78125 -3.640625 C 4.476562 -3.242188 4.101562 -2.875 3.65625 -2.53125 C 3.269531 -2.238281 2.859375 -1.988281 2.421875 -1.78125 C 1.992188 -1.582031 1.613281 -1.445312 1.28125 -1.375 C 0.957031 -1.3125 0.648438 -1.257812 0.359375 -1.21875 C 0.078125 -1.175781 -0.132812 -1.160156 -0.28125 -1.171875 L -0.515625 -1.1875 L -0.78125 -3.625 C -0.664062 -3.625 -0.488281 -3.625 -0.25 -3.625 C -0.0078125 -3.625 0.363281 -3.675781 0.875 -3.78125 C 1.394531 -3.882812 1.800781 -4.046875 2.09375 -4.265625 C 2.9375 -4.910156 3.140625 -5.519531 2.703125 -6.09375 C 2.609375 -6.207031 2.492188 -6.289062 2.359375 -6.34375 C 2.222656 -6.40625 2.039062 -6.429688 1.8125 -6.421875 C 1.582031 -6.410156 1.382812 -6.390625 1.21875 -6.359375 C 1.0625 -6.335938 0.800781 -6.285156 0.4375 -6.203125 C 0.0820312 -6.117188 -0.1875 -6.054688 -0.375 -6.015625 C -1.101562 -5.890625 -1.757812 -5.90625 -2.34375 -6.0625 C -2.9375 -6.226562 -3.40625 -6.539062 -3.75 -7 C -4.351562 -7.789062 -4.550781 -8.65625 -4.34375 -9.59375 C -4.144531 -10.53125 -3.675781 -11.285156 -2.9375 -11.859375 Z M -2.9375 -11.859375 "/></g></g></g><g fill="#ffffff" fill-opacity="1"><g transform="translate(104.721101, 69.736686)"><g><path d="M 0.234375 -13.140625 L 1.40625 -11.265625 L -1.859375 -9.21875 L -0.703125 -7.375 L 2.3125 -9.265625 L 3.484375 -7.390625 L 0.46875 -5.5 L 2.8125 -1.75 L 0.671875 -0.421875 L -5.171875 -9.765625 Z M 0.234375 -13.140625 "/></g></g></g><g fill="#ffffff" fill-opacity="1"><g transform="translate(115.998411, 62.904346)"><g><path d="M -2.15625 -5.09375 C -2.851562 -6.519531 -2.957031 -7.96875 -2.46875 -9.4375 C -1.976562 -10.90625 -1.046875 -11.972656 0.328125 -12.640625 C 1.703125 -13.328125 3.113281 -13.410156 4.5625 -12.890625 C 6.007812 -12.367188 7.082031 -11.394531 7.78125 -9.96875 C 8.5 -8.519531 8.625 -7.066406 8.15625 -5.609375 C 7.695312 -4.160156 6.765625 -3.085938 5.359375 -2.390625 C 3.898438 -1.679688 2.460938 -1.585938 1.046875 -2.109375 C -0.359375 -2.628906 -1.425781 -3.625 -2.15625 -5.09375 Z M 0.265625 -6.28125 C 0.523438 -5.757812 0.835938 -5.320312 1.203125 -4.96875 C 1.578125 -4.625 2.035156 -4.398438 2.578125 -4.296875 C 3.128906 -4.203125 3.695312 -4.296875 4.28125 -4.578125 C 5.113281 -4.992188 5.601562 -5.59375 5.75 -6.375 C 5.894531 -7.164062 5.765625 -7.96875 5.359375 -8.78125 C 4.960938 -9.582031 4.40625 -10.164062 3.6875 -10.53125 C 2.976562 -10.894531 2.210938 -10.875 1.390625 -10.46875 C 0.566406 -10.070312 0.078125 -9.472656 -0.078125 -8.671875 C -0.242188 -7.878906 -0.128906 -7.082031 0.265625 -6.28125 Z M 0.265625 -6.28125 "/></g></g></g><g fill="#ffffff" fill-opacity="1"><g transform="translate(131.680765, 55.60278)"><g><path d="M -3 -10.625 L 0.703125 -11.96875 C 1.703125 -12.332031 2.609375 -12.359375 3.421875 -12.046875 C 4.242188 -11.742188 4.832031 -11.097656 5.1875 -10.109375 C 5.457031 -9.359375 5.492188 -8.65625 5.296875 -8 C 5.109375 -7.34375 4.734375 -6.796875 4.171875 -6.359375 L 9.265625 -3.359375 L 6.265625 -2.28125 L 1.625 -5.203125 L 3.109375 -1.125 L 0.75 -0.265625 Z M 1.015625 -6.875 L 1.296875 -6.984375 C 1.515625 -7.054688 1.695312 -7.125 1.84375 -7.1875 C 2 -7.257812 2.160156 -7.351562 2.328125 -7.46875 C 2.503906 -7.59375 2.632812 -7.722656 2.71875 -7.859375 C 2.800781 -7.992188 2.847656 -8.160156 2.859375 -8.359375 C 2.878906 -8.566406 2.84375 -8.796875 2.75 -9.046875 C 2.664062 -9.296875 2.550781 -9.492188 2.40625 -9.640625 C 2.257812 -9.785156 2.113281 -9.878906 1.96875 -9.921875 C 1.820312 -9.972656 1.640625 -9.992188 1.421875 -9.984375 C 1.210938 -9.972656 1.03125 -9.9375 0.875 -9.875 C 0.726562 -9.820312 0.546875 -9.757812 0.328125 -9.6875 L 0.046875 -9.578125 Z M 1.015625 -6.875 "/></g></g></g><g fill="#ffffff" fill-opacity="1"><g transform="translate(145.997879, 50.648841)"><g><path d="M 9.625 -2.328125 L 7.578125 -8.546875 L 7.515625 -8.53125 L 6.84375 -1.71875 L 5.390625 -1.359375 L 1.6875 -7.125 L 1.625 -7.109375 L 2.640625 -0.640625 L 0.21875 -0.046875 L -1.40625 -10.984375 L 1.1875 -11.609375 L 5.046875 -6.015625 L 5.921875 -12.75 L 8.53125 -13.375 L 12.0625 -2.90625 Z M 9.625 -2.328125 "/></g></g></g><g fill="#ffffff" fill-opacity="1"><g transform="translate(163.780502, 46.753154)"><g><path d="M 5 -11.71875 L 10.75 -1.3125 L 8.078125 -0.984375 L 7.015625 -3.078125 L 2.859375 -2.5625 L 2.3125 -0.28125 L -0.375 0.046875 L 2.6875 -11.4375 Z M 5.890625 -5.15625 L 4.28125 -8.1875 L 4.265625 -8.1875 L 3.421875 -4.859375 Z M 5.890625 -5.15625 "/></g></g></g><g fill="#ffffff" fill-opacity="1"><g transform="translate(179.778802, 45.131634)"><g><path d="M -0.09375 -8.8125 L -0.140625 -11.015625 L 7.59375 -11.203125 L 7.640625 -9 L 5.03125 -8.9375 L 5.234375 -0.125 L 2.71875 -0.0625 L 2.515625 -8.875 Z M -0.09375 -8.8125 "/></g></g></g><g fill="#ffffff" fill-opacity="1"><g transform="translate(193.4027, 45.114194)"><g><path d="M 3.921875 -10.8125 L 3.3125 0.1875 L 0.796875 0.046875 L 1.40625 -10.953125 Z M 3.921875 -10.8125 "/></g></g></g><g fill="#ffffff" fill-opacity="1"><g transform="translate(203.143561, 45.735783)"><g><path d="M 1.109375 -5.40625 C 1.335938 -6.988281 2.066406 -8.242188 3.296875 -9.171875 C 4.535156 -10.097656 5.910156 -10.453125 7.421875 -10.234375 C 8.941406 -10.003906 10.148438 -9.269531 11.046875 -8.03125 C 11.953125 -6.789062 12.289062 -5.378906 12.0625 -3.796875 C 11.832031 -2.203125 11.113281 -0.9375 9.90625 0 C 8.695312 0.925781 7.316406 1.273438 5.765625 1.046875 C 4.171875 0.816406 2.9375 0.0859375 2.0625 -1.140625 C 1.1875 -2.367188 0.867188 -3.789062 1.109375 -5.40625 Z M 3.78125 -5.015625 C 3.695312 -4.441406 3.707031 -3.90625 3.8125 -3.40625 C 3.925781 -2.914062 4.179688 -2.472656 4.578125 -2.078125 C 4.972656 -1.691406 5.488281 -1.453125 6.125 -1.359375 C 7.050781 -1.210938 7.796875 -1.421875 8.359375 -1.984375 C 8.921875 -2.554688 9.265625 -3.289062 9.390625 -4.1875 C 9.523438 -5.070312 9.398438 -5.867188 9.015625 -6.578125 C 8.628906 -7.296875 7.984375 -7.722656 7.078125 -7.859375 C 6.179688 -7.984375 5.441406 -7.757812 4.859375 -7.1875 C 4.273438 -6.625 3.914062 -5.898438 3.78125 -5.015625 Z M 3.78125 -5.015625 "/></g></g></g><g fill="#ffffff" fill-opacity="1"><g transform="translate(220.196832, 48.579259)"><g><path d="M 4.953125 -5.75 L 3.203125 0.84375 L 0.765625 0.203125 L 3.59375 -10.4375 L 6.03125 -9.796875 L 8.5 -2.0625 L 8.53125 -2.046875 L 10.296875 -8.65625 L 12.703125 -8.03125 L 9.875 2.609375 L 7.46875 1.984375 L 4.984375 -5.734375 Z M 4.953125 -5.75 "/></g></g></g><g fill="#ffffff" fill-opacity="1"><g transform="translate(236.200213, 53.237958)"><g/></g></g><g fill="#ffffff" fill-opacity="1"><g transform="translate(244.925807, 56.524125)"><g><path d="M 3.703125 -7.984375 L 4.609375 -10 L 11.671875 -6.828125 L 10.765625 -4.8125 L 8.390625 -5.890625 L 4.78125 2.140625 L 2.484375 1.109375 L 6.09375 -6.921875 Z M 3.703125 -7.984375 "/></g></g></g><g fill="#ffffff" fill-opacity="1"><g transform="translate(257.218672, 62.293344)"><g><path d="M 5.078125 -2.203125 L 2.875 1.640625 L 0.6875 0.390625 L 6.171875 -9.171875 L 8.359375 -7.921875 L 6.171875 -4.109375 L 9.25 -2.34375 L 11.4375 -6.15625 L 13.609375 -4.90625 L 8.125 4.65625 L 5.953125 3.40625 L 8.15625 -0.4375 Z M 5.078125 -2.203125 "/></g></g></g><g fill="#ffffff" fill-opacity="1"><g transform="translate(270.750857, 70.40807)"><g><path d="M 7.078125 -8.46875 L 10.28125 -6.171875 C 11.144531 -5.546875 11.679688 -4.8125 11.890625 -3.96875 C 12.097656 -3.125 11.894531 -2.273438 11.28125 -1.421875 C 10.8125 -0.765625 10.25 -0.332031 9.59375 -0.125 C 8.945312 0.0820312 8.28125 0.078125 7.59375 -0.140625 L 8 5.765625 L 5.421875 3.90625 L 5.21875 -1.59375 L 2.6875 1.9375 L 0.640625 0.46875 Z M 6.265625 -3.03125 L 6.5 -2.859375 C 6.6875 -2.722656 6.847656 -2.613281 6.984375 -2.53125 C 7.117188 -2.445312 7.285156 -2.363281 7.484375 -2.28125 C 7.679688 -2.207031 7.859375 -2.171875 8.015625 -2.171875 C 8.179688 -2.179688 8.351562 -2.234375 8.53125 -2.328125 C 8.707031 -2.429688 8.875 -2.59375 9.03125 -2.8125 C 9.1875 -3.03125 9.285156 -3.238281 9.328125 -3.4375 C 9.367188 -3.644531 9.363281 -3.820312 9.3125 -3.96875 C 9.269531 -4.125 9.179688 -4.285156 9.046875 -4.453125 C 8.910156 -4.617188 8.78125 -4.75 8.65625 -4.84375 C 8.53125 -4.9375 8.375 -5.050781 8.1875 -5.1875 L 7.953125 -5.359375 Z M 6.265625 -3.03125 "/></g></g></g><g fill="#ffffff" fill-opacity="1"><g transform="translate(282.906023, 79.459238)"><g><path d="M 3.921875 -3.890625 C 4.984375 -5.078125 6.285156 -5.71875 7.828125 -5.8125 C 9.367188 -5.90625 10.707031 -5.4375 11.84375 -4.40625 C 12.988281 -3.375 13.59375 -2.09375 13.65625 -0.5625 C 13.71875 0.96875 13.21875 2.328125 12.15625 3.515625 C 11.070312 4.710938 9.769531 5.367188 8.25 5.484375 C 6.726562 5.597656 5.382812 5.128906 4.21875 4.078125 C 3.019531 2.992188 2.394531 1.695312 2.34375 0.1875 C 2.300781 -1.320312 2.828125 -2.679688 3.921875 -3.890625 Z M 5.921875 -2.078125 C 5.535156 -1.648438 5.25 -1.195312 5.0625 -0.71875 C 4.882812 -0.25 4.851562 0.253906 4.96875 0.796875 C 5.082031 1.335938 5.378906 1.828125 5.859375 2.265625 C 6.554688 2.890625 7.289062 3.117188 8.0625 2.953125 C 8.84375 2.796875 9.535156 2.382812 10.140625 1.71875 C 10.742188 1.050781 11.078125 0.316406 11.140625 -0.484375 C 11.210938 -1.296875 10.910156 -2.007812 10.234375 -2.625 C 9.554688 -3.226562 8.816406 -3.453125 8.015625 -3.296875 C 7.222656 -3.148438 6.523438 -2.742188 5.921875 -2.078125 Z M 5.921875 -2.078125 "/></g></g></g><g fill="#ffffff" fill-opacity="1"><g transform="translate(295.524165, 91.28995)"><g><path d="M 14.390625 -0.421875 L 9.09375 4.3125 C 8.082031 5.207031 7.070312 5.613281 6.0625 5.53125 C 5.0625 5.457031 4.09375 4.894531 3.15625 3.84375 C 2.21875 2.800781 1.765625 1.773438 1.796875 0.765625 C 1.835938 -0.242188 2.363281 -1.195312 3.375 -2.09375 L 8.671875 -6.828125 L 10.328125 -4.96875 L 5.578125 -0.734375 C 4.910156 -0.140625 4.539062 0.375 4.46875 0.8125 C 4.394531 1.257812 4.566406 1.71875 4.984375 2.1875 C 5.410156 2.65625 5.847656 2.878906 6.296875 2.859375 C 6.742188 2.835938 7.300781 2.53125 7.96875 1.9375 L 12.71875 -2.296875 Z M 14.390625 -0.421875 "/></g></g></g><g fill="#ffffff" fill-opacity="1"><g transform="translate(305.66172, 103.05425)"><g><path d="M 11.265625 5.15625 L 9.328125 6.546875 C 8.097656 7.085938 6.929688 7.160156 5.828125 6.765625 C 4.722656 6.378906 3.820312 5.703125 3.125 4.734375 C 2.257812 3.523438 1.976562 2.171875 2.28125 0.671875 C 2.582031 -0.828125 3.375 -2.035156 4.65625 -2.953125 C 5.96875 -3.878906 7.363281 -4.242188 8.84375 -4.046875 C 10.332031 -3.859375 11.519531 -3.144531 12.40625 -1.90625 C 13.445312 -0.445312 13.769531 1.066406 13.375 2.640625 L 10.9375 2.34375 C 11.351562 1.320312 11.253906 0.382812 10.640625 -0.46875 C 10.191406 -1.101562 9.535156 -1.445312 8.671875 -1.5 C 7.804688 -1.550781 6.988281 -1.300781 6.21875 -0.75 C 5.457031 -0.195312 4.96875 0.488281 4.75 1.3125 C 4.53125 2.132812 4.644531 2.863281 5.09375 3.5 C 5.476562 4.019531 5.960938 4.359375 6.546875 4.515625 C 7.128906 4.679688 7.679688 4.578125 8.203125 4.203125 L 6.734375 2.140625 L 8.3125 1.015625 Z M 11.265625 5.15625 "/></g></g></g><g fill="#ffffff" fill-opacity="1"><g transform="translate(315.088404, 116.789764)"><g><path d="M 5.484375 0.71875 L 1.625 2.890625 L 0.390625 0.6875 L 9.984375 -4.71875 L 11.21875 -2.515625 L 7.390625 -0.359375 L 9.125 2.734375 L 12.953125 0.578125 L 14.1875 2.765625 L 4.59375 8.171875 L 3.359375 5.984375 L 7.21875 3.8125 Z M 5.484375 0.71875 "/></g></g></g><g fill="#e3c153" fill-opacity="1"><g transform="translate(90.222377, 169.308723)"><g><path d="M 0.515625 -43.03125 L 0.515625 -53.796875 L 38.34375 -53.796875 L 38.34375 -43.03125 L 25.5625 -43.03125 L 25.5625 0 L 13.296875 0 L 13.296875 -43.03125 Z M 0.515625 -43.03125 "/></g></g></g><g fill="#e3c153" fill-opacity="1"><g transform="translate(145.636657, 169.308723)"><g><path d="M 16.171875 -53.796875 L 16.171875 0 L 3.90625 0 L 3.90625 -53.796875 Z M 16.171875 -53.796875 "/></g></g></g><g fill="#e3c153" fill-opacity="1"><g transform="translate(182.275807, 169.308723)"><g><path d="M 3.90625 -53.796875 L 19.5 -53.796875 C 26.96875 -53.796875 33.351562 -51.238281 38.65625 -46.125 C 43.96875 -41.019531 46.625 -34.617188 46.625 -26.921875 C 46.625 -19.191406 43.984375 -12.769531 38.703125 -7.65625 C 33.421875 -2.550781 27.019531 0 19.5 0 L 3.90625 0 Z M 16.171875 -10.953125 L 18.0625 -10.953125 C 22.539062 -10.953125 26.203125 -12.460938 29.046875 -15.484375 C 31.890625 -18.503906 33.335938 -22.296875 33.390625 -26.859375 C 33.390625 -31.421875 31.960938 -35.222656 29.109375 -38.265625 C 26.265625 -41.316406 22.582031 -42.84375 18.0625 -42.84375 L 16.171875 -42.84375 Z M 16.171875 -10.953125 "/></g></g></g><g fill="#e3c153" fill-opacity="1"><g transform="translate(246.947281, 169.308723)"><g><path d="M 34.6875 -53.796875 L 34.6875 -43.03125 L 16.171875 -43.03125 L 16.171875 -32.34375 L 33.90625 -32.34375 L 33.90625 -21.578125 L 16.171875 -21.578125 L 16.171875 -10.765625 L 34.6875 -10.765625 L 34.6875 0 L 3.90625 0 L 3.90625 -53.796875 Z M 34.6875 -53.796875 "/></g></g></g><g fill="#ffffff" fill-opacity="1"><g transform="translate(36.115545, 165.673463)"><g><path d="M 10.25 5.25 L -0.59375 3.265625 L -0.140625 0.78125 L 10.703125 2.765625 Z M 10.25 5.25 "/></g></g></g><g fill="#ffffff" fill-opacity="1"><g transform="translate(34.395843, 175.736621)"><g><path d="M 6.5 3.921875 L -0.296875 3.296875 L -0.078125 0.796875 L 10.890625 1.8125 L 10.671875 4.3125 L 3.453125 8.046875 L 3.453125 8.078125 L 10.265625 8.703125 L 10.03125 11.1875 L -0.9375 10.171875 L -0.703125 7.6875 L 6.484375 3.953125 Z M 6.5 3.921875 "/></g></g></g><g fill="#ffffff" fill-opacity="1"><g transform="translate(33.174625, 192.851298)"><g><path d="M 2.375 6.625 C 2.375 7.007812 2.429688 7.378906 2.546875 7.734375 C 2.671875 8.085938 2.796875 8.347656 2.921875 8.515625 L 3.09375 8.765625 L 0.96875 9.875 C 0.945312 9.832031 0.910156 9.78125 0.859375 9.71875 C 0.816406 9.65625 0.734375 9.515625 0.609375 9.296875 C 0.484375 9.078125 0.375 8.835938 0.28125 8.578125 C 0.1875 8.316406 0.0976562 7.976562 0.015625 7.5625 C -0.0546875 7.144531 -0.0976562 6.710938 -0.109375 6.265625 C -0.117188 5.242188 0.117188 4.269531 0.609375 3.34375 C 1.097656 2.425781 1.773438 1.679688 2.640625 1.109375 C 3.515625 0.535156 4.460938 0.238281 5.484375 0.21875 C 6.253906 0.207031 7 0.359375 7.71875 0.671875 C 8.4375 0.992188 9.050781 1.425781 9.5625 1.96875 C 10.082031 2.507812 10.5 3.140625 10.8125 3.859375 C 11.125 4.585938 11.285156 5.332031 11.296875 6.09375 C 11.304688 6.8125 11.234375 7.46875 11.078125 8.0625 C 10.921875 8.664062 10.765625 9.09375 10.609375 9.34375 L 10.34375 9.734375 L 8.203125 8.6875 C 8.253906 8.632812 8.3125 8.546875 8.375 8.421875 C 8.445312 8.296875 8.539062 8.039062 8.65625 7.65625 C 8.78125 7.28125 8.84375 6.898438 8.84375 6.515625 C 8.832031 5.910156 8.722656 5.367188 8.515625 4.890625 C 8.316406 4.421875 8.050781 4.046875 7.71875 3.765625 C 7.394531 3.492188 7.046875 3.285156 6.671875 3.140625 C 6.304688 3.003906 5.9375 2.9375 5.5625 2.9375 C 4.71875 2.957031 3.96875 3.285156 3.3125 3.921875 C 2.664062 4.554688 2.351562 5.457031 2.375 6.625 Z M 2.375 6.625 "/></g></g></g><g fill="#ffffff" fill-opacity="1"><g transform="translate(33.783428, 208.994439)"><g><path d="M 11.328125 2.0625 L 2.5625 3.046875 L 2.984375 6.796875 L 0.796875 7.046875 L 0.09375 0.796875 L 11.046875 -0.4375 Z M 11.328125 2.0625 "/></g></g></g><g fill="#ffffff" fill-opacity="1"><g transform="translate(35.546681, 222.528484)"><g><path d="M 12.703125 6.78125 L 5.75 8.25 C 4.414062 8.53125 3.332031 8.382812 2.5 7.8125 C 1.675781 7.25 1.117188 6.28125 0.828125 4.90625 C 0.535156 3.53125 0.648438 2.410156 1.171875 1.546875 C 1.703125 0.691406 2.632812 0.125 3.96875 -0.15625 L 10.921875 -1.625 L 11.4375 0.828125 L 5.203125 2.15625 C 4.328125 2.332031 3.75 2.59375 3.46875 2.9375 C 3.1875 3.28125 3.109375 3.757812 3.234375 4.375 C 3.367188 5 3.632812 5.410156 4.03125 5.609375 C 4.425781 5.816406 5.0625 5.832031 5.9375 5.65625 L 12.171875 4.328125 Z M 12.703125 6.78125 "/></g></g></g><g fill="#ffffff" fill-opacity="1"><g transform="translate(39.186523, 238.157047)"><g><path d="M 12.15625 1.21875 C 12.332031 1.789062 12.425781 2.367188 12.4375 2.953125 C 12.445312 3.546875 12.410156 4.003906 12.328125 4.328125 L 12.203125 4.78125 L 9.984375 4.4375 C 10.015625 4.34375 10.046875 4.21875 10.078125 4.0625 C 10.117188 3.90625 10.144531 3.613281 10.15625 3.1875 C 10.175781 2.757812 10.132812 2.390625 10.03125 2.078125 C 9.90625 1.679688 9.722656 1.398438 9.484375 1.234375 C 9.242188 1.078125 8.976562 1.046875 8.6875 1.140625 C 8.550781 1.179688 8.4375 1.269531 8.34375 1.40625 C 8.257812 1.550781 8.1875 1.765625 8.125 2.046875 C 8.0625 2.335938 8.015625 2.59375 7.984375 2.8125 C 7.960938 3.03125 7.929688 3.359375 7.890625 3.796875 C 7.804688 4.566406 7.59375 5.269531 7.25 5.90625 C 6.914062 6.550781 6.429688 6.972656 5.796875 7.171875 C 5.203125 7.359375 4.644531 7.414062 4.125 7.34375 C 3.601562 7.269531 3.15625 7.082031 2.78125 6.78125 C 2.40625 6.488281 2.082031 6.132812 1.8125 5.71875 C 1.550781 5.300781 1.332031 4.828125 1.15625 4.296875 C 1.007812 3.835938 0.910156 3.367188 0.859375 2.890625 C 0.816406 2.421875 0.816406 2.019531 0.859375 1.6875 C 0.898438 1.351562 0.953125 1.039062 1.015625 0.75 C 1.078125 0.46875 1.140625 0.257812 1.203125 0.125 L 1.28125 -0.078125 L 3.671875 0.46875 C 3.617188 0.59375 3.550781 0.765625 3.46875 0.984375 C 3.394531 1.203125 3.320312 1.570312 3.25 2.09375 C 3.1875 2.625 3.210938 3.0625 3.328125 3.40625 C 3.648438 4.414062 4.148438 4.8125 4.828125 4.59375 C 4.972656 4.539062 5.09375 4.460938 5.1875 4.359375 C 5.28125 4.253906 5.359375 4.085938 5.421875 3.859375 C 5.492188 3.640625 5.546875 3.445312 5.578125 3.28125 C 5.617188 3.125 5.65625 2.863281 5.6875 2.5 C 5.726562 2.132812 5.765625 1.859375 5.796875 1.671875 C 5.910156 0.941406 6.144531 0.328125 6.5 -0.171875 C 6.863281 -0.671875 7.316406 -1.007812 7.859375 -1.1875 C 8.804688 -1.476562 9.6875 -1.367188 10.5 -0.859375 C 11.3125 -0.359375 11.863281 0.332031 12.15625 1.21875 Z M 12.15625 1.21875 "/></g></g></g><g fill="#ffffff" fill-opacity="1"><g transform="translate(44.086088, 252.371018)"><g><path d="M 11.453125 -1.125 L 1.265625 3.0625 L 0.296875 0.734375 L 10.484375 -3.453125 Z M 11.453125 -1.125 "/></g></g></g><g fill="#ffffff" fill-opacity="1"><g transform="translate(48.070166, 261.772271)"><g><path d="M 5.03125 -2.265625 C 6.445312 -3.003906 7.890625 -3.148438 9.359375 -2.703125 C 10.835938 -2.253906 11.929688 -1.351562 12.640625 0 C 13.359375 1.375 13.476562 2.789062 13 4.25 C 12.519531 5.707031 11.570312 6.804688 10.15625 7.546875 C 8.726562 8.285156 7.28125 8.441406 5.8125 8.015625 C 4.34375 7.585938 3.242188 6.675781 2.515625 5.28125 C 1.773438 3.851562 1.644531 2.425781 2.125 1 C 2.613281 -0.425781 3.582031 -1.515625 5.03125 -2.265625 Z M 6.28125 0.125 C 5.757812 0.394531 5.332031 0.71875 5 1.09375 C 4.664062 1.46875 4.457031 1.925781 4.375 2.46875 C 4.289062 3.019531 4.394531 3.582031 4.6875 4.15625 C 5.125 4.988281 5.734375 5.46875 6.515625 5.59375 C 7.304688 5.71875 8.101562 5.570312 8.90625 5.15625 C 9.695312 4.738281 10.265625 4.164062 10.609375 3.4375 C 10.960938 2.707031 10.925781 1.9375 10.5 1.125 C 10.082031 0.320312 9.472656 -0.144531 8.671875 -0.28125 C 7.867188 -0.425781 7.070312 -0.289062 6.28125 0.125 Z M 6.28125 0.125 "/></g></g></g><g fill="#ffffff" fill-opacity="1"><g transform="translate(56.651079, 277.431684)"><g><path d="M 7.515625 -1.078125 L 1.859375 2.75 L 0.453125 0.65625 L 9.578125 -5.515625 L 10.984375 -3.421875 L 7.75 4.046875 L 7.78125 4.0625 L 13.453125 0.21875 L 14.84375 2.296875 L 5.71875 8.46875 L 4.328125 6.390625 L 7.53125 -1.0625 Z M 7.515625 -1.078125 "/></g></g></g><g fill="#ffffff" fill-opacity="1"><g transform="translate(66.575235, 291.366475)"><g><path d="M 3.6875 -0.015625 C 3.957031 0.316406 4.070312 0.691406 4.03125 1.109375 C 3.988281 1.523438 3.800781 1.867188 3.46875 2.140625 C 2.4375 2.984375 0.96875 3.21875 -0.9375 2.84375 L -0.921875 1.953125 C -0.835938 1.972656 -0.722656 1.984375 -0.578125 1.984375 C -0.441406 1.992188 -0.191406 1.960938 0.171875 1.890625 C 0.535156 1.828125 0.867188 1.71875 1.171875 1.5625 C 1.015625 1.238281 0.96875 0.914062 1.03125 0.59375 C 1.09375 0.28125 1.257812 0.0078125 1.53125 -0.21875 C 1.863281 -0.488281 2.238281 -0.601562 2.65625 -0.5625 C 3.070312 -0.519531 3.414062 -0.335938 3.6875 -0.015625 Z M 3.6875 -0.015625 "/></g></g></g><g fill="#ffffff" fill-opacity="1"><g transform="translate(73.49798, 299.514622)"><g/></g></g><g fill="#ffffff" fill-opacity="1"><g transform="translate(80.217472, 306.544085)"><g><path d="M 8 -7.625 L 10.359375 -5.484375 C 11.492188 -4.453125 12.109375 -3.179688 12.203125 -1.671875 C 12.304688 -0.160156 11.828125 1.175781 10.765625 2.34375 C 9.703125 3.507812 8.414062 4.113281 6.90625 4.15625 C 5.40625 4.207031 4.085938 3.710938 2.953125 2.671875 L 0.59375 0.53125 Z M 3.953125 0.578125 L 4.234375 0.828125 C 4.921875 1.453125 5.6875 1.726562 6.53125 1.65625 C 7.375 1.582031 8.113281 1.207031 8.75 0.53125 C 9.375 -0.164062 9.679688 -0.9375 9.671875 -1.78125 C 9.660156 -2.632812 9.3125 -3.375 8.625 -4 L 8.34375 -4.25 Z M 3.953125 0.578125 "/></g></g></g><g fill="#ffffff" fill-opacity="1"><g transform="translate(92.255155, 317.013356)"><g><path d="M 12.28125 -4.578125 L 10.953125 -2.8125 L 7.921875 -5.078125 L 6.625 -3.328125 L 9.53125 -1.15625 L 8.203125 0.609375 L 5.296875 -1.5625 L 3.96875 0.21875 L 7 2.484375 L 5.6875 4.25 L 0.640625 0.484375 L 7.234375 -8.34375 Z M 12.28125 -4.578125 "/></g></g></g><g fill="#ffffff" fill-opacity="1"><g transform="translate(103.497271, 325.114313)"><g><path d="M 3.640625 2.203125 L 5.359375 -9.625 L 7.78125 -8.171875 L 6.4375 -0.53125 L 12.53125 -5.3125 L 14.953125 -3.84375 L 5.328125 3.21875 Z M 3.640625 2.203125 "/></g></g></g><g fill="#ffffff" fill-opacity="1"><g transform="translate(117.873953, 333.358195)"><g><path d="M 11.140625 -6.90625 L 10.1875 -4.90625 L 6.765625 -6.53125 L 5.828125 -4.5625 L 9.109375 -3 L 8.171875 -1.015625 L 4.890625 -2.578125 L 3.9375 -0.5625 L 7.359375 1.0625 L 6.40625 3.046875 L 0.71875 0.34375 L 5.453125 -9.609375 Z M 11.140625 -6.90625 "/></g></g></g><g fill="#ffffff" fill-opacity="1"><g transform="translate(130.475192, 339.056954)"><g><path d="M 6.9375 -9.171875 L 3.875 -0.90625 L 7.421875 0.40625 L 6.65625 2.46875 L 0.75 0.28125 L 4.578125 -10.046875 Z M 6.9375 -9.171875 "/></g></g></g><g fill="#ffffff" fill-opacity="1"><g transform="translate(143.357629, 343.620194)"><g><path d="M 1.6875 -5.265625 C 2.082031 -6.804688 2.941406 -7.972656 4.265625 -8.765625 C 5.597656 -9.554688 7.003906 -9.757812 8.484375 -9.375 C 9.972656 -8.988281 11.097656 -8.128906 11.859375 -6.796875 C 12.628906 -5.460938 12.816406 -4.023438 12.421875 -2.484375 C 12.015625 -0.921875 11.160156 0.257812 9.859375 1.0625 C 8.554688 1.863281 7.144531 2.066406 5.625 1.671875 C 4.0625 1.265625 2.910156 0.40625 2.171875 -0.90625 C 1.429688 -2.226562 1.269531 -3.679688 1.6875 -5.265625 Z M 4.3125 -4.59375 C 4.164062 -4.019531 4.117188 -3.476562 4.171875 -2.96875 C 4.222656 -2.46875 4.421875 -2 4.765625 -1.5625 C 5.117188 -1.132812 5.609375 -0.84375 6.234375 -0.6875 C 7.140625 -0.445312 7.898438 -0.578125 8.515625 -1.078125 C 9.140625 -1.578125 9.566406 -2.269531 9.796875 -3.15625 C 10.015625 -4.019531 9.96875 -4.828125 9.65625 -5.578125 C 9.351562 -6.328125 8.757812 -6.816406 7.875 -7.046875 C 7 -7.273438 6.238281 -7.140625 5.59375 -6.640625 C 4.957031 -6.140625 4.53125 -5.457031 4.3125 -4.59375 Z M 4.3125 -4.59375 "/></g></g></g><g fill="#ffffff" fill-opacity="1"><g transform="translate(160.715382, 347.70996)"><g><path d="M 2.40625 -10.78125 L 6.390625 -10.1875 C 7.492188 -10.019531 8.34375 -9.597656 8.9375 -8.921875 C 9.539062 -8.253906 9.757812 -7.375 9.59375 -6.28125 C 9.4375 -5.1875 8.960938 -4.378906 8.171875 -3.859375 C 7.378906 -3.335938 6.441406 -3.160156 5.359375 -3.328125 L 3.875 -3.546875 L 3.28125 0.484375 L 0.78125 0.109375 Z M 4.171875 -5.53125 L 4.859375 -5.421875 C 5.421875 -5.335938 5.894531 -5.378906 6.28125 -5.546875 C 6.675781 -5.722656 6.910156 -6.070312 6.984375 -6.59375 C 7.054688 -7.101562 6.929688 -7.492188 6.609375 -7.765625 C 6.296875 -8.046875 5.859375 -8.226562 5.296875 -8.3125 L 4.609375 -8.421875 Z M 4.171875 -5.53125 "/></g></g></g><g fill="#ffffff" fill-opacity="1"><g transform="translate(175.618408, 349.68811)"><g><path d="M 9.90625 0.375 L 9.625 -6.171875 L 9.5625 -6.171875 L 7.0625 0.203125 L 5.5625 0.15625 L 3.5625 -6.40625 L 3.5 -6.40625 L 2.71875 0.109375 L 0.21875 0.015625 L 1.625 -10.953125 L 4.296875 -10.859375 L 6.484375 -4.421875 L 9.171875 -10.671875 L 11.828125 -10.5625 L 12.390625 0.46875 Z M 9.90625 0.375 "/></g></g></g><g fill="#ffffff" fill-opacity="1"><g transform="translate(194.365846, 349.953643)"><g><path d="M 6.34375 -11.46875 L 6.484375 -9.28125 L 2.71875 -9.015625 L 2.875 -6.828125 L 6.484375 -7.078125 L 6.625 -4.875 L 3.015625 -4.625 L 3.171875 -2.421875 L 6.9375 -2.6875 L 7.078125 -0.484375 L 0.796875 -0.046875 L 0.0625 -11.03125 Z M 6.34375 -11.46875 "/></g></g></g><g fill="#ffffff" fill-opacity="1"><g transform="translate(208.179576, 348.797517)"><g><path d="M 2.125 -7.28125 L 3.265625 -0.546875 L 0.78125 -0.140625 L -1.0625 -11 L 1.421875 -11.40625 L 6.875 -5.390625 L 6.90625 -5.390625 L 5.765625 -12.140625 L 8.234375 -12.5625 L 10.078125 -1.703125 L 7.609375 -1.28125 L 2.15625 -7.296875 Z M 2.125 -7.28125 "/></g></g></g><g fill="#ffffff" fill-opacity="1"><g transform="translate(225.010136, 345.561049)"><g><path d="M -2.234375 -8.53125 L -2.8125 -10.65625 L 4.640625 -12.703125 L 5.21875 -10.578125 L 2.703125 -9.890625 L 5.046875 -1.390625 L 2.625 -0.71875 L 0.28125 -9.21875 Z M -2.234375 -8.53125 "/></g></g></g><g fill="#ffffff" fill-opacity="1"><g transform="translate(238.442022, 341.546394)"><g><path d="M 1.21875 -3.484375 C 1.625 -3.628906 2.015625 -3.609375 2.390625 -3.421875 C 2.765625 -3.242188 3.023438 -2.957031 3.171875 -2.5625 C 3.617188 -1.320312 3.351562 0.132812 2.375 1.8125 L 1.546875 1.515625 C 1.585938 1.441406 1.632812 1.335938 1.6875 1.203125 C 1.738281 1.066406 1.796875 0.816406 1.859375 0.453125 C 1.921875 0.0859375 1.921875 -0.257812 1.859375 -0.59375 C 1.503906 -0.550781 1.1875 -0.609375 0.90625 -0.765625 C 0.625 -0.929688 0.421875 -1.179688 0.296875 -1.515625 C 0.148438 -1.910156 0.164062 -2.300781 0.34375 -2.6875 C 0.53125 -3.070312 0.820312 -3.335938 1.21875 -3.484375 Z M 1.21875 -3.484375 "/></g></g></g><g fill="#ffffff" fill-opacity="1"><g transform="translate(248.414512, 337.69305)"><g/></g></g><g fill="#ffffff" fill-opacity="1"><g transform="translate(257.284629, 333.678663)"><g><path d="M -1.046875 -2.71875 C -1.203125 -3.007812 -1.285156 -3.320312 -1.296875 -3.65625 C -1.316406 -4 -1.265625 -4.34375 -1.140625 -4.6875 C -1.015625 -5.039062 -0.875 -5.367188 -0.71875 -5.671875 C -0.570312 -5.972656 -0.378906 -6.296875 -0.140625 -6.640625 C -1.234375 -7.109375 -1.953125 -7.648438 -2.296875 -8.265625 C -2.710938 -9.023438 -2.773438 -9.78125 -2.484375 -10.53125 C -2.203125 -11.28125 -1.570312 -11.921875 -0.59375 -12.453125 C 0.3125 -12.953125 1.15625 -13.082031 1.9375 -12.84375 C 2.71875 -12.613281 3.285156 -12.171875 3.640625 -11.515625 C 3.796875 -11.242188 3.878906 -10.941406 3.890625 -10.609375 C 3.898438 -10.273438 3.863281 -9.96875 3.78125 -9.6875 C 3.695312 -9.40625 3.597656 -9.140625 3.484375 -8.890625 C 3.378906 -8.648438 3.28125 -8.457031 3.1875 -8.3125 L 3.046875 -8.09375 L 5.078125 -7.46875 C 5.285156 -7.75 5.53125 -8.414062 5.8125 -9.46875 L 7.921875 -8.875 C 7.753906 -8.132812 7.535156 -7.445312 7.265625 -6.8125 L 10.53125 -5.78125 L 7.75 -4.25 L 6.25 -4.71875 C 6.070312 -4.351562 5.9375 -4.082031 5.84375 -3.90625 C 5.757812 -3.738281 5.613281 -3.507812 5.40625 -3.21875 C 5.195312 -2.925781 4.960938 -2.671875 4.703125 -2.453125 C 4.441406 -2.242188 4.140625 -2.046875 3.796875 -1.859375 C 3.492188 -1.691406 3.179688 -1.550781 2.859375 -1.4375 C 2.535156 -1.320312 2.1875 -1.242188 1.8125 -1.203125 C 1.445312 -1.171875 1.09375 -1.191406 0.75 -1.265625 C 0.414062 -1.335938 0.09375 -1.492188 -0.21875 -1.734375 C -0.539062 -1.984375 -0.816406 -2.3125 -1.046875 -2.71875 Z M 0.265625 -10.90625 C -0.015625 -10.75 -0.175781 -10.539062 -0.21875 -10.28125 C -0.257812 -10.03125 -0.207031 -9.765625 -0.0625 -9.484375 C 0.03125 -9.316406 0.1875 -9.164062 0.40625 -9.03125 C 0.632812 -8.894531 0.84375 -8.796875 1.03125 -8.734375 L 1.296875 -8.671875 C 1.796875 -9.460938 1.9375 -10.054688 1.71875 -10.453125 C 1.375 -11.097656 0.890625 -11.25 0.265625 -10.90625 Z M 4.03125 -5.390625 L 1.671875 -6.078125 C 1.648438 -6.054688 1.617188 -6.019531 1.578125 -5.96875 C 1.535156 -5.914062 1.476562 -5.820312 1.40625 -5.6875 C 1.332031 -5.550781 1.273438 -5.414062 1.234375 -5.28125 C 1.203125 -5.144531 1.191406 -4.984375 1.203125 -4.796875 C 1.210938 -4.609375 1.265625 -4.4375 1.359375 -4.28125 C 1.492188 -4.019531 1.707031 -3.875 2 -3.84375 C 2.289062 -3.820312 2.582031 -3.890625 2.875 -4.046875 C 3.113281 -4.179688 3.328125 -4.359375 3.515625 -4.578125 C 3.710938 -4.796875 3.84375 -4.988281 3.90625 -5.15625 Z M 4.03125 -5.390625 "/></g></g></g><g fill="#ffffff" fill-opacity="1"><g transform="translate(272.152558, 325.041479)"><g/></g></g><g fill="#ffffff" fill-opacity="1"><g transform="translate(280.139622, 319.529765)"><g><path d="M -1.21875 -13.046875 L 0.140625 -11.3125 L -2.828125 -8.984375 L -1.46875 -7.265625 L 1.390625 -9.5 L 2.734375 -7.765625 L -0.125 -5.53125 L 1.25 -3.78125 L 4.21875 -6.109375 L 5.578125 -4.375 L 0.625 -0.484375 L -6.171875 -9.15625 Z M -1.21875 -13.046875 "/></g></g></g><g fill="#ffffff" fill-opacity="1"><g transform="translate(290.941989, 310.81651)"><g><path d="M 7.109375 -6.890625 L 2.1875 -11.21875 L 2.140625 -11.171875 L 5.015625 -4.96875 L 3.953125 -3.921875 L -2.171875 -7 L -2.21875 -6.953125 L 1.953125 -1.890625 L 0.15625 -0.15625 L -6.8125 -8.75 L -4.890625 -10.609375 L 1.296875 -7.734375 L -1.390625 -14 L 0.53125 -15.859375 L 8.90625 -8.640625 Z M 7.109375 -6.890625 "/></g></g></g><g fill="#ffffff" fill-opacity="1"><g transform="translate(304.099985, 297.443829)"><g><path d="M -7.96875 -7.640625 L -5.421875 -10.734375 C -4.703125 -11.597656 -3.898438 -12.113281 -3.015625 -12.28125 C -2.128906 -12.445312 -1.257812 -12.175781 -0.40625 -11.46875 C 0.445312 -10.769531 0.890625 -9.945312 0.921875 -9 C 0.960938 -8.050781 0.628906 -7.148438 -0.078125 -6.296875 L -1.03125 -5.140625 L 2.109375 -2.546875 L 0.515625 -0.609375 Z M -2.578125 -6.421875 L -2.125 -6.96875 C -1.769531 -7.40625 -1.566406 -7.832031 -1.515625 -8.25 C -1.460938 -8.675781 -1.632812 -9.054688 -2.03125 -9.390625 C -2.4375 -9.722656 -2.835938 -9.820312 -3.234375 -9.6875 C -3.640625 -9.550781 -4.019531 -9.265625 -4.375 -8.828125 L -4.828125 -8.28125 Z M -2.578125 -6.421875 "/></g></g></g><g fill="#ffffff" fill-opacity="1"><g transform="translate(313.487499, 285.715497)"><g><path d="M -4.421875 -3.3125 C -5.753906 -4.1875 -6.578125 -5.378906 -6.890625 -6.890625 C -7.210938 -8.398438 -6.953125 -9.796875 -6.109375 -11.078125 C -5.253906 -12.359375 -4.070312 -13.140625 -2.5625 -13.421875 C -1.050781 -13.710938 0.367188 -13.421875 1.703125 -12.546875 C 3.046875 -11.648438 3.882812 -10.457031 4.21875 -8.96875 C 4.550781 -7.476562 4.28125 -6.082031 3.40625 -4.78125 C 2.519531 -3.425781 1.335938 -2.613281 -0.140625 -2.34375 C -1.628906 -2.082031 -3.054688 -2.40625 -4.421875 -3.3125 Z M -2.921875 -5.5625 C -2.441406 -5.238281 -1.957031 -5.019531 -1.46875 -4.90625 C -0.976562 -4.789062 -0.472656 -4.828125 0.046875 -5.015625 C 0.578125 -5.210938 1.019531 -5.582031 1.375 -6.125 C 1.894531 -6.90625 2.015625 -7.664062 1.734375 -8.40625 C 1.460938 -9.15625 0.953125 -9.78125 0.203125 -10.28125 C -0.546875 -10.769531 -1.320312 -10.992188 -2.125 -10.953125 C -2.925781 -10.910156 -3.582031 -10.507812 -4.09375 -9.75 C -4.59375 -8.988281 -4.707031 -8.222656 -4.4375 -7.453125 C -4.175781 -6.679688 -3.671875 -6.050781 -2.921875 -5.5625 Z M -2.921875 -5.5625 "/></g></g></g><g fill="#ffffff" fill-opacity="1"><g transform="translate(323.127901, 270.638191)"><g><path d="M 4.09375 -8.296875 L -2.21875 -9.4375 L 2.53125 -5.125 L 1.296875 -2.640625 L -9.96875 -4.6875 L -8.71875 -7.203125 L -1.109375 -5.53125 L -1.09375 -5.59375 L -6.984375 -10.734375 L -6.140625 -12.4375 L 1.53125 -10.890625 L 1.5625 -10.9375 L -4.390625 -15.984375 L -3.15625 -18.46875 L 5.328125 -10.765625 Z M 4.09375 -8.296875 "/></g></g></g><g fill="#ffffff" fill-opacity="1"><g transform="translate(331.980436, 251.48735)"><g><path d="M -7.953125 -10.40625 L -5.890625 -9.65625 L -7.171875 -6.09375 L -5.109375 -5.359375 L -3.890625 -8.78125 L -1.8125 -8.03125 L -3.03125 -4.609375 L -0.953125 -3.859375 L 0.328125 -7.421875 L 2.40625 -6.671875 L 0.265625 -0.75 L -10.09375 -4.484375 Z M -7.953125 -10.40625 "/></g></g></g><g fill="#ffffff" fill-opacity="1"><g transform="translate(336.436927, 238.372757)"><g><path d="M -10.46875 -3.5 L -9.5 -7.328125 C -9.238281 -8.347656 -8.75 -9.109375 -8.03125 -9.609375 C -7.3125 -10.117188 -6.445312 -10.242188 -5.4375 -9.984375 C -4.65625 -9.785156 -4.046875 -9.421875 -3.609375 -8.890625 C -3.179688 -8.367188 -2.945312 -7.742188 -2.90625 -7.015625 L 2.4375 -9.546875 L 1.65625 -6.46875 L -3.375 -4.28125 L 0.828125 -3.203125 L 0.203125 -0.765625 Z M -5.109375 -4.71875 L -5.046875 -5.015625 C -4.984375 -5.234375 -4.9375 -5.421875 -4.90625 -5.578125 C -4.882812 -5.742188 -4.867188 -5.929688 -4.859375 -6.140625 C -4.859375 -6.347656 -4.890625 -6.523438 -4.953125 -6.671875 C -5.023438 -6.816406 -5.140625 -6.957031 -5.296875 -7.09375 C -5.460938 -7.226562 -5.671875 -7.328125 -5.921875 -7.390625 C -6.179688 -7.453125 -6.410156 -7.460938 -6.609375 -7.421875 C -6.816406 -7.378906 -6.976562 -7.3125 -7.09375 -7.21875 C -7.21875 -7.125 -7.332031 -6.984375 -7.4375 -6.796875 C -7.550781 -6.609375 -7.628906 -6.4375 -7.671875 -6.28125 C -7.710938 -6.132812 -7.765625 -5.953125 -7.828125 -5.734375 L -7.890625 -5.4375 Z M -5.109375 -4.71875 "/></g></g></g><g fill="#ffffff" fill-opacity="1"><g transform="translate(340.079505, 223.096396)"><g><path d="M 1.375 -9.8125 L -5.171875 -10.1875 L -5.171875 -10.125 L 0.921875 -7.015625 L 0.703125 -5.53125 L -6.015625 -4.1875 L -6.015625 -4.125 L 0.375 -2.6875 L 0.03125 -0.21875 L -10.734375 -2.71875 L -10.375 -5.375 L -3.734375 -6.890625 L -9.6875 -10.203125 L -9.328125 -12.84375 L 1.71875 -12.28125 Z M 1.375 -9.8125 "/></g></g></g><g fill="#ffffff" fill-opacity="1"><g transform="translate(342.229878, 204.473488)"><g><path d="M -10.78125 -7.46875 L -8.578125 -7.390625 L -8.703125 -3.609375 L -6.515625 -3.53125 L -6.390625 -7.15625 L -4.1875 -7.078125 L -4.3125 -3.453125 L -2.09375 -3.390625 L -1.96875 -7.171875 L 0.234375 -7.09375 L 0.03125 -0.796875 L -10.984375 -1.171875 Z M -10.78125 -7.46875 "/></g></g></g><g fill="#ffffff" fill-opacity="1"><g transform="translate(342.462506, 190.607946)"><g><path d="M -7.03125 -2.859375 L -0.21875 -3.3125 L -0.046875 -0.796875 L -11.03125 -0.0625 L -11.203125 -2.578125 L -4.671875 -7.390625 L -4.671875 -7.421875 L -11.5 -6.96875 L -11.671875 -9.46875 L -0.6875 -10.203125 L -0.515625 -7.703125 L -7.03125 -2.890625 Z M -7.03125 -2.859375 "/></g></g></g><g fill="#ffffff" fill-opacity="1"><g transform="translate(340.937241, 173.541708)"><g><path d="M -8.703125 1.359375 L -10.875 1.734375 L -12.171875 -5.890625 L -10 -6.265625 L -9.5625 -3.6875 L -0.875 -5.15625 L -0.453125 -2.6875 L -9.140625 -1.21875 Z M -8.703125 1.359375 "/></g></g></g></svg>